# xmcd CD database file
#
# Track frame offsets:
#	151
#	14241
#	28664
#	43662
#	56895
#	71757
#	85656
#	97473
#	112657
#	125364
#	137722
#	150314
#	166555
#	180768
#	193580
#	207319
#	221401
#	233995
#	247069
#	258106
#
# Disc length: 3626 seconds
#
# Revision: 0
# Processed by: cddbd v1.5.1PL2 Copyright (c) Steve Scherf et al.
# Submitted via: CDex 1.51
#
DISCID=130e2814
DTITLE=Various Artist - History of Jazz
DYEAR=1939
DGENRE=Jazz
TTITLE0=TAIN'T WHAT YOU DO (Oliver-Young) Jimmie Lunceford and His Orchestra feat Trummy Young - Jan 3
TTITLE1=OH! LADY BE GOOD (Gershwin) Count Basie and His Orchestra - Feb 4
TTITLE2=UNDECIDED (Shavers) Ella Fitzgerald with Chick Webb and His Orchestra - Feb 17
TTITLE3=DOOJI WOOJI (Ellington) Johnny Hodges and His Orchestra - Feb 27
TTITLE4=WOODCHOPPER'S BALL (Bishop-Herman) Woody Herman and His Orchestra - Apr 12
TTITLE5=BIG BUTTER AND EGG MAN (Friend-Clare-Santly) Muggsy Spanier and His Ragtime Band - Jul 7
TTITLE6=PIANO MAN (Johnson-Hines) Earl Hines and His Orchestra - Jul 12
TTITLE7=CHEROKEE (Noble) Charlie Barnet and His Orchestra - Jul 17
TTITLE8=AUNT' HAGAR'S BLUES (Handy) Jack Teagarden and His Orchestra - Jul 19
TTITLE9=I FOUND A NEW BABY (Palmer-Williams) Bud Freeman and His Summa Cum Laude Orchestra - Jul 19
TTITLE10=OPUS 5 (Chopin-Shavers) John Kirby and His Orchestra - Jul 28
TTITLE11=IN THE MOOD (Razaf-Garland) Glenn Miller and His Orchestra - Aug 1
TTITLE12=SQUEEZE ME (Waller-Williams) Fats Waller and His Rhythm - Aug 10
TTITLE13=HIGH SOCIETY (Steele) Jelly-Roll Morton's New Orleans Jazzmen - Sep 14
TTITLE14=BODY AND SOUL (Heyman-Sour-Heyton-Green) Coleman Hawkinsand His Orchestra - Oct 11
TTITLE15=PLUCKED AGAIN (Ellington) Duke Ellington and Jimmy Blanton - Nov 22
TTITLE16=SEVEN COME ELEVEN (Goodman-Christian) Benny Goodman Sextet, feat Charlie Christian - Nov 22
TTITLE17=CONCERTO FOR TRUMPET (James) Harry James and His Orchestra - Nov 30
TTITLE18=LIZA (Gershwin) Teddy Wilson an His Big Band - Dec 11
TTITLE19=THE MAN I LOVE (Gershwin-Gershwin) Billie Holiday and Her Orchestra - Dec 13
EXTD=YEAR: 1939
EXTT0=
EXTT1=
EXTT2=
EXTT3=
EXTT4=
EXTT5=
EXTT6=
EXTT7=
EXTT8=
EXTT9=
EXTT10=
EXTT11=
EXTT12=
EXTT13=
EXTT14=
EXTT15=
EXTT16=
EXTT17=
EXTT18=
EXTT19=
PLAYORDER=
